<?xml version="1.0" standalone="no"?>
<!DOCTYPE svg PUBLIC "-//W3C//DTD SVG 20010904//EN"
 "http://www.w3.org/TR/2001/REC-SVG-20010904/DTD/svg10.dtd">
<svg version="1.0" xmlns="http://www.w3.org/2000/svg"
 width="104.000000pt" height="84.000000pt" viewBox="0 0 104.000000 84.000000"
 preserveAspectRatio="xMidYMid meet">

<g transform="translate(0.000000,84.000000) scale(0.100000,-0.100000)"
fill="#000000" stroke="none">
<path d="M311 616 c-16 -19 -11 -46 12 -60 25 -16 52 4 52 40 0 24 -5 30 -26
32 -14 2 -31 -4 -38 -12z m49 -11 c10 -12 10 -18 0 -29 -14 -18 -40 -10 -40
13 0 32 20 40 40 16z"/>
<path d="M465 546 c-96 -43 -135 -168 -81 -260 25 -43 88 -86 125 -86 16 0 21
-6 21 -24 0 -14 5 -28 10 -31 6 -4 10 7 10 24 0 25 4 31 22 31 12 0 40 11 62
24 98 57 116 196 38 280 -51 54 -140 72 -207 42z m174 -37 c52 -37 49 -46 -4
-19 -52 27 -138 27 -190 0 -53 -27 -56 -18 -4 19 35 26 51 31 99 31 48 0 64
-5 99 -31z m-67 -96 c36 -32 17 -83 -32 -83 -48 0 -67 45 -33 82 20 22 41 23
65 1z m-89 -63 c3 -11 17 -25 31 -31 32 -15 75 1 83 31 5 17 14 20 59 20 54 0
54 0 48 -27 -23 -100 -134 -158 -227 -119 -35 14 -97 78 -97 101 0 7 -3 20 -6
29 -5 13 3 16 49 16 46 0 55 -3 60 -20z"/>
<path d="M720 230 c0 -5 14 -10 30 -10 17 0 30 5 30 10 0 6 -13 10 -30 10 -16
0 -30 -4 -30 -10z"/>
<path d="M715 200 c-4 -6 8 -10 30 -10 22 0 34 4 30 10 -3 6 -17 10 -30 10
-13 0 -27 -4 -30 -10z"/>
<path d="M728 163 c12 -2 30 -2 40 0 9 3 -1 5 -23 4 -22 0 -30 -2 -17 -4z"/>
</g>
</svg>
